<svg xmlns="http://www.w3.org/2000/svg" viewBox="0 0 100 100">
  <rect width="100" height="100" rx="24" fill="white"/>
  <g transform="translate(26, 15) scale(2)" fill="none" stroke="#2b59c3" stroke-width="1.2" stroke-linecap="round" stroke-linejoin="round">
    <path d="m18 7 4 2v11a2 2 0 0 1-2 2H4a2 2 0 0 1-2-2V9l4-2"/>
    <path d="M14 22v-4a2 2 0 0 0-2-2v0a2 2 0 0 0-2 2v4"/>
    <path d="M18 22V5l-6-3-6 3v17"/>
    <path d="M12 7v5"/>
    <path d="M10 9h4"/>
  </g>
  <text x="50" y="88" text-anchor="middle" font-family="system-ui, -apple-system, sans-serif" font-weight="900" font-size="11" fill="#2b59c3" letter-spacing="1.5">CATEQUESE</text>
</svg>
